<?xml version="1.0" encoding="UTF-8" standalone="no"?>
<svg
   version="1.1"
   width="841.92pt"
   height="595.2pt"
   viewBox="0 0 841.92 595.2"
   overflow="visible"
   id="svg16"
   sodipodi:docname="Screen-Protector-Film_VAT-size.svg"
   inkscape:version="1.2 (dc2aedaf03, 2022-05-15)"
   xmlns:inkscape="http://www.inkscape.org/namespaces/inkscape"
   xmlns:sodipodi="http://sodipodi.sourceforge.net/DTD/sodipodi-0.dtd"
   xmlns="http://www.w3.org/2000/svg"
   xmlns:svg="http://www.w3.org/2000/svg">
  <defs
     id="defs20" />
  <sodipodi:namedview
     id="namedview18"
     pagecolor="#505050"
     bordercolor="#ffffff"
     borderopacity="1"
     inkscape:showpageshadow="0"
     inkscape:pageopacity="0"
     inkscape:pagecheckerboard="1"
     inkscape:deskcolor="#505050"
     inkscape:document-units="pt"
     showgrid="false"
     inkscape:current-layer="layer2" />
  <g
     inkscape:groupmode="layer"
     id="layer1"
     inkscape:label="Screem-Protector"
     style="display:inline">
    <path
       id="path4"
       style="fill:#aca793;fill-opacity:0.53431374"
       d="M 206.15771 117.07764 L 201.68555 117.0835 L 197.21924 117.271 C 194.25864 117.5805 191.35054 118.41498 188.64404 119.67188 C 185.93748 120.92884 183.43278 122.60787 181.24512 124.63037 C 179.05732 126.65287 177.18558 129.01931 175.72998 131.62061 C 174.27438 134.22177 173.23456 137.058 172.66846 139.98486 L 172.16016 144.42334 L 172.12793 146.65869 L 172.14111 148.89551 L 172.14111 153.36768 L 172.13818 157.83984 L 172.14111 166.78418 L 172.14111 431.48291 C 172.14111 437.83247 173.15424 444.18856 175.20264 450.19482 C 176.22684 453.19792 177.50938 456.11412 179.02734 458.90332 C 180.54534 461.69242 182.2994 464.3542 184.2627 466.8501 C 186.22596 469.346 188.39889 471.67521 190.75049 473.80811 C 193.10219 475.94107 195.63169 477.87745 198.30615 479.58691 C 200.98075 481.29641 203.80121 482.77977 206.72461 484.01807 C 209.64801 485.25627 212.67486 486.24945 215.76416 486.98145 C 289.82868 504.52997 365.94257 513.4248 442.05615 513.4248 C 518.16997 513.4248 594.28509 504.53007 668.34961 486.98145 C 671.42541 486.25265 674.43941 485.26488 677.35107 484.03418 C 680.26267 482.80338 683.07154 481.33042 685.7373 479.63232 C 688.4031 477.93416 690.92636 476.0101 693.27246 473.8916 C 695.61856 471.7731 697.78804 469.45977 699.74854 466.98047 C 701.709 464.50117 703.46046 461.85636 704.98096 459.08496 C 706.50146 456.31366 707.7913 453.41616 708.8291 450.43066 C 710.9047 444.4596 711.97119 438.13719 711.97119 431.81543 L 711.97119 166.78418 L 711.97412 157.83984 L 711.97266 153.36768 L 711.97266 148.89551 L 711.98438 146.65869 L 711.95215 144.42334 L 711.44385 139.98486 C 710.87765 137.058 709.83792 134.22177 708.38232 131.62061 C 706.92666 129.01931 705.05489 126.65287 702.86719 124.63037 C 700.67939 122.60787 698.17619 120.92874 695.46973 119.67188 C 692.76313 118.41488 689.85363 117.5805 686.89307 117.271 L 682.42822 117.0835 L 677.95605 117.07764 L 206.15771 117.07764 z M 685.71533 132.76465 C 685.8953 132.76921 686.07421 132.78022 686.25293 132.79834 C 691.97171 132.21854 698.4548 138.70163 697.875 144.42041 C 698.4548 150.13929 691.97171 156.62218 686.25293 156.04248 C 680.53405 156.62218 674.05116 150.13929 674.63086 144.42041 C 674.06928 138.88034 680.13631 132.6232 685.71533 132.76465 z M 197.49023 132.79834 C 203.20903 132.21864 209.6921 138.70162 209.1123 144.42041 C 209.6921 150.1392 203.20903 156.62228 197.49023 156.04248 C 191.77144 156.62228 185.28846 150.1392 185.86816 144.42041 C 185.28846 138.70162 191.77144 132.21864 197.49023 132.79834 z M 677.76416 449.3291 C 677.94413 449.33366 678.12304 449.34468 678.30176 449.36279 C 684.02053 448.78309 690.50363 455.26743 689.92383 460.98633 C 690.50363 466.7051 684.02053 473.18673 678.30176 472.60693 C 672.58286 473.18673 666.09989 466.7051 666.67969 460.98633 C 666.11801 455.44615 672.18513 449.18782 677.76416 449.3291 z M 205.27295 449.33057 C 205.45292 449.33513 205.63183 449.34614 205.81055 449.36426 C 211.52941 448.78446 218.01242 455.26753 217.43262 460.98633 C 218.01242 466.70519 211.52931 473.1882 205.81055 472.6084 C 200.09165 473.1882 193.60868 466.70519 194.18848 460.98633 C 193.6268 455.44625 199.694 449.18912 205.27295 449.33057 z " />
  </g>
  <g
     inkscape:groupmode="layer"
     id="layer2"
     inkscape:label="Seal"
     style="display:inline">
    <path
       id="path12"
       style="fill:#000000;fill-opacity:1"
       d="m 206.15771,107.80518 -4.54101,0.006 -1.85596,0.0249 -2.0625,0.0908 -1.10595,0.0879 -1.95264,0.2417 -4.45313,0.97265 -4.24072,1.49707 -2.84766,1.3462 -3.81738,2.29541 c -2.4598,1.68359 -4.72034,3.65823 -6.71924,5.86962 -2.00479,2.2179 -3.7467,4.67512 -5.17089,7.30372 -1.4242,2.62869 -2.53108,5.42948 -3.28858,8.32177 l -0.71924,3.3794 -0.29736,2.20166 -0.17139,2.18701 -0.0454,1.27734 -0.0132,1.91895 0.0146,2.45508 0.001,2.45507 -0.004,2.45655 v 6.29443 l 0.001,6.2959 v 124.71826 c 1.3815,-0.0931 2.89457,0.46492 3.88477,1.43262 1.0184,0.938 1.65516,2.4198 1.63476,3.8042 0.0204,1.3844 -0.61636,2.8661 -1.63476,3.8042 -0.9902,0.9677 -2.50327,1.52571 -3.88477,1.43261 v 129.50684 l 0.21973,5.50488 0.66211,5.46826 1.11328,5.42139 1.56299,5.31006 2.01269,5.16797 2.44336,4.979 2.85205,4.75196 3.23877,4.4956 3.60352,4.20557 3.94336,3.88916 4.25537,3.54638 4.53662,3.17725 2.36572,1.44141 2.42285,1.34179 2.47852,1.23926 2.52832,1.13233 2.57227,1.02685 1.30224,0.47315 1.3125,0.44531 1.31983,0.41894 1.33007,0.38965 0.66651,0.18457 0.6709,0.17725 0.6709,0.17139 0.67236,0.16113 7.01514,1.63623 7.02685,1.58349 14.08887,3.01465 7.05908,1.42969 7.0708,1.37842 7.07959,1.32715 7.08984,1.27588 14.20459,2.39648 14.23975,2.18994 c 9.50319,1.3908 19.02653,2.64379 28.56592,3.75879 9.53929,1.115 19.09501,2.09209 28.6626,2.92969 9.56769,0.8376 19.14638,1.53583 28.73437,2.09472 9.58809,0.5588 19.18545,0.97831 28.78565,1.25831 9.60019,0.28 19.20342,0.42041 28.80761,0.42041 9.60429,0 19.20889,-0.14031 28.80908,-0.42041 9.60009,-0.2801 19.19619,-0.70057 28.78418,-1.25977 19.17598,-1.1184 38.31976,-2.79365 57.39844,-5.02295 9.53949,-1.1147 19.06283,-2.36779 28.56592,-3.75879 9.50309,-1.391 18.98564,-2.92003 28.44434,-4.58642 9.45859,-1.6664 18.89312,-3.47034 28.29931,-5.41114 l 14.0874,-3.01465 7.02686,-1.58349 7.01514,-1.63623 0.67089,-0.16113 0.66797,-0.16993 0.66651,-0.17724 0.66504,-0.18311 1.32422,-0.38818 0.65771,-0.20362 0.65625,-0.2124 0.65479,-0.21679 0.65185,-0.22559 1.29639,-0.47022 1.28613,-0.49658 1.27734,-0.52441 2.51661,-1.12647 2.46826,-1.23046 2.41552,-1.33155 2.35694,-1.43408 2.29541,-1.5293 2.22803,-1.62597 2.15771,-1.7168 2.08594,-1.80615 3.93603,-3.8628 3.59912,-4.17919 3.23731,-4.46485 2.85059,-4.72119 2.44921,-4.94238 2.02881,-5.12842 1.59082,-5.28076 1.14405,-5.39502 0.6914,-5.47266 0.22998,-5.51074 V 301.97607 c -1.3814,0.0931 -2.89456,-0.46501 -3.88476,-1.43261 -1.0184,-0.9381 -1.65517,-2.4198 -1.63477,-3.8042 -0.0204,-1.3844 0.61637,-2.8661 1.63477,-3.8042 0.9902,-0.9677 2.50336,-1.52572 3.88476,-1.43262 V 166.78418 l 0.003,-6.73975 v -5.85058 l -0.006,-3.26953 10e-4,-1.64209 0.0146,-2.45508 -0.0132,-1.92041 -0.0454,-1.27735 -0.16992,-2.18554 -0.29736,-2.20166 -0.71924,-3.38086 c -0.7575,-2.8924 -1.86574,-5.69308 -3.29004,-8.32178 -1.4243,-2.6286 -3.16474,-5.08425 -5.16943,-7.30225 -1.9989,-2.21129 -4.26101,-4.18603 -6.72071,-5.86962 l -3.81738,-2.29688 -2.84766,-1.34473 -4.23925,-1.49707 -4.45313,-0.97412 -1.95264,-0.24023 -1.10742,-0.0894 -2.06103,-0.0894 -1.85742,-0.0264 -4.53956,-0.004 z m 471.79834,21.51123 4.43555,0.006 1.53809,0.022 1.22314,0.0586 0.51709,0.0454 0.92578,0.1333 1.88965,0.47315 1.93799,0.76904 c 1.2387,0.5866 2.40406,1.32786 3.45996,2.20166 l 1.49121,1.40039 1.30371,1.57471 1.08545,1.70801 0.85547,1.82959 0.61963,1.92187 0.28711,1.41211 0.19922,2.08594 0.0205,1.33154 -10e-4,0.81592 -0.0103,1.48682 -0.006,1.6289 0.003,2.26465 0.004,3.55518 -0.001,3.57568 -10e-4,7.16748 V 431.8156 c 0,2.6336 -0.23742,5.26659 -0.70312,7.85889 -0.4381,2.43899 -1.07832,4.843 -1.91602,7.1748 -0.8906,2.4789 -2.00454,4.87746 -3.31933,7.16016 l -2.1211,3.33252 -1.32275,1.79004 c 0.7586,4.05939 -1.17478,8.97005 -4.49707,11.42285 -3.158,2.66099 -8.38302,3.39827 -12.20362,1.73877 l -3.66796,1.47217 -1.87647,0.6123 -1.90137,0.52881 -0.479,0.11865 -0.74121,0.17578 -0.74121,0.17432 -7.29492,1.6875 c -9.73419,2.2125 -19.50288,4.27544 -29.30127,6.18603 -19.59758,3.8212 -39.31223,7.03554 -59.10791,9.64014 -39.59086,5.20919 -79.50371,7.97981 -119.43457,8.27051 -39.93036,0.2907 -79.87965,-1.89881 -119.54151,-6.53321 -19.83168,-2.31729 -39.59159,-5.24604 -59.24267,-8.78173 -9.82509,-1.7679 -19.62317,-3.68684 -29.38916,-5.75684 l -14.62354,-3.21973 -7.29199,-1.69336 -0.65625,-0.15673 -3.8042,-1.10596 -4.13965,-1.64063 c -3.7718,1.6818 -8.99571,0.9442 -12.15381,-1.71679 -3.32239,-2.4529 -5.25587,-7.36346 -4.49707,-11.42285 l -1.13965,-1.5293 -2.15625,-3.33106 c -1.3342,-2.27769 -2.46687,-4.67469 -3.37207,-7.15429 l -1.18359,-3.76465 -0.84961,-3.88477 c -0.4558,-2.63529 -0.68115,-5.31036 -0.68115,-7.98486 v -264.6989 l -0.003,-7.16748 -0.001,-3.57568 0.004,-3.55518 0.003,-2.26465 -0.006,-1.6289 -0.009,-1.48536 -0.003,-0.81738 0.006,-0.71924 0.0161,-0.6123 0.19776,-2.08594 0.28857,-1.41211 0.61816,-1.92187 0.85547,-1.82959 1.08692,-1.70801 1.30371,-1.57471 1.49121,-1.39892 c 1.056,-0.8737 2.22126,-1.61653 3.45996,-2.20313 l 1.93799,-0.76758 1.88965,-0.47461 0.92578,-0.1333 0.51562,-0.0454 1.22315,-0.0586 1.53808,-0.022 4.43701,-0.004 z" />
    <path
       style="display:inline;fill:none;fill-opacity:0.53431374;stroke:#f4f42f;stroke-opacity:1;stroke-dasharray:3, 3;stroke-dashoffset:0"
       d="m 206.15771,117.07764 -4.47216,0.006 -4.46631,0.1875 c -2.9606,0.3095 -5.8687,1.14398 -8.5752,2.40088 -2.70656,1.25696 -5.21126,2.93599 -7.39892,4.95849 -2.1878,2.0225 -4.05954,4.38894 -5.51514,6.99024 -1.4556,2.60116 -2.49542,5.43739 -3.06152,8.36425 l -0.5083,4.43848 -0.0322,2.23535 0.0132,2.23682 v 4.47217 l -0.003,4.47216 0.003,8.94434 v 264.69873 c 0,6.34956 1.01313,12.70565 3.06153,18.71191 1.0242,3.0031 2.30674,5.9193 3.8247,8.7085 1.518,2.7891 3.27206,5.45088 5.23536,7.94678 1.96326,2.4959 4.13619,4.82511 6.48779,6.95801 2.3517,2.13296 4.8812,4.06934 7.55566,5.7788 2.6746,1.7095 5.49506,3.19286 8.41846,4.43116 2.9234,1.2382 5.95025,2.23138 9.03955,2.96338 74.06452,17.54852 150.17841,26.44335 226.29199,26.44335 76.11382,0 152.22894,-8.89473 226.29346,-26.44335 3.0758,-0.7288 6.0898,-1.71657 9.00146,-2.94727 2.9116,-1.2308 5.72047,-2.70376 8.38623,-4.40186 2.6658,-1.69816 5.18906,-3.62222 7.53516,-5.74072 2.3461,-2.1185 4.51558,-4.43183 6.47608,-6.91113 1.96046,-2.4793 3.71192,-5.12411 5.23242,-7.89551 1.5205,-2.7713 2.81034,-5.6688 3.84814,-8.6543 2.0756,-5.97106 3.14209,-12.29347 3.14209,-18.61523 V 166.78418 l 0.003,-8.94434 -0.001,-4.47216 v -4.47217 l 0.0117,-2.23682 -0.0322,-2.23535 -0.5083,-4.43848 c -0.5662,-2.92686 -1.60593,-5.76309 -3.06153,-8.36425 -1.45566,-2.6013 -3.32743,-4.96774 -5.51513,-6.99024 -2.1878,-2.0225 -4.691,-3.70163 -7.39746,-4.95849 -2.7066,-1.257 -5.6161,-2.09138 -8.57666,-2.40088 l -4.46485,-0.1875 -4.47217,-0.006 z"
       id="path1605" />
  </g>
</svg>
